<svg width="33.842773" height="33.875061" viewBox="0 0 33.8428 33.8751" fill="none" xmlns="http://www.w3.org/2000/svg" xmlns:xlink="http://www.w3.org/1999/xlink">
	<desc>
			Created with Pixso.
	</desc>
	<defs/>
	<path id="Icon" d="M32.33 15.52L32.33 16.94C32.33 20.26 31.25 23.5 29.26 26.16C27.27 28.82 24.47 30.77 21.29 31.71C18.1 32.66 14.69 32.54 11.57 31.39C8.45 30.24 5.79 28.11 3.98 25.32C2.17 22.53 1.31 19.23 1.53 15.92C1.75 12.6 3.04 9.44 5.2 6.91C7.36 4.39 10.27 2.63 13.52 1.89C16.76 1.16 20.15 1.5 23.19 2.85M32.33 4.61L16.91 20.04L12.29 15.41" stroke="#FFFFFF" stroke-opacity="1.000000" stroke-width="3.000000" stroke-linejoin="round" stroke-linecap="round"/>
</svg>
