<svg width="144.000000" height="16.000000" viewBox="0 0 144 16" fill="none" xmlns="http://www.w3.org/2000/svg" xmlns:xlink="http://www.w3.org/1999/xlink">
	<desc>
			Created with Pixso.
	</desc>
	<defs>
		<clipPath id="clip2_148">
			<rect id="Facebook / Negative" rx="0.000000" width="15.000000" height="15.000000" transform="translate(0.500000 0.500000)" fill="white" fill-opacity="0"/>
		</clipPath>
		<clipPath id="clip2_150">
			<rect id="Twitter / Negative" rx="0.000000" width="15.000000" height="15.000000" transform="translate(43.166016 0.500000)" fill="white" fill-opacity="0"/>
		</clipPath>
		<clipPath id="clip2_155">
			<rect id="Instagram / Negative" rx="0.000000" width="15.000000" height="15.000000" transform="translate(85.833984 0.500000)" fill="white" fill-opacity="0"/>
		</clipPath>
		<clipPath id="clip2_158">
			<rect id="LinkedIn / Negative" rx="0.000000" width="15.000000" height="15.000000" transform="translate(128.500000 0.500000)" fill="white" fill-opacity="0"/>
		</clipPath>
	</defs>
	<rect id="Facebook / Negative" rx="0.000000" width="15.000000" height="15.000000" transform="translate(0.500000 0.500000)" fill="#FFFFFF" fill-opacity="0"/>
	<g clip-path="url(#clip2_148)">
		<path id="Vector" d="M16 8C16 3.58 12.41 0 8 0C3.58 0 0 3.58 0 8C0 11.99 2.92 15.3 6.75 15.9L6.75 10.31L4.71 10.31L4.71 8L6.75 8L6.75 6.23C6.75 4.23 7.94 3.12 9.77 3.12C10.64 3.12 11.56 3.28 11.56 3.28L11.56 5.25L10.55 5.25C9.56 5.25 9.25 5.86 9.25 6.5L9.25 8L11.46 8L11.11 10.31L9.25 10.31L9.25 15.9C13.07 15.3 16 11.99 16 8Z" fill="#6D6E76" fill-opacity="1.000000" fill-rule="nonzero"/>
	</g>
	<rect id="Twitter / Negative" rx="0.000000" width="15.000000" height="15.000000" transform="translate(43.166016 0.500000)" fill="#FFFFFF" fill-opacity="0"/>
	<g clip-path="url(#clip2_150)">
		<path id="Vector" d="M47.69 14.5C53.73 14.5 57.03 9.49 57.03 5.16C57.03 5.02 57.03 4.87 57.02 4.73C57.67 4.27 58.22 3.69 58.66 3.03C58.06 3.3 57.43 3.47 56.78 3.55C57.46 3.14 57.97 2.49 58.22 1.73C57.58 2.11 56.87 2.38 56.14 2.53C55.64 2 54.99 1.65 54.27 1.54C53.56 1.42 52.83 1.54 52.19 1.88C51.56 2.22 51.05 2.77 50.75 3.42C50.45 4.08 50.38 4.82 50.54 5.52C49.24 5.46 47.96 5.12 46.79 4.53C45.63 3.94 44.6 3.11 43.78 2.09C43.36 2.82 43.23 3.67 43.42 4.49C43.61 5.3 44.1 6.01 44.79 6.47C44.27 6.46 43.76 6.32 43.3 6.07L43.3 6.11C43.3 6.86 43.57 7.6 44.05 8.19C44.53 8.77 45.2 9.18 45.94 9.33C45.46 9.46 44.95 9.48 44.46 9.38C44.67 10.03 45.08 10.6 45.62 11.01C46.17 11.42 46.84 11.65 47.52 11.66C46.36 12.58 44.92 13.07 43.45 13.07C43.18 13.07 42.92 13.05 42.66 13.02C44.16 13.98 45.91 14.5 47.69 14.5Z" fill="#6D6E76" fill-opacity="1.000000" fill-rule="nonzero"/>
	</g>
	<rect id="Instagram / Negative" rx="0.000000" width="15.000000" height="15.000000" transform="translate(85.833984 0.500000)" fill="#FFFFFF" fill-opacity="0"/>
	<g clip-path="url(#clip2_155)">
		<path id="Vector" d="M93.33 1.44C95.47 1.44 95.72 1.45 96.56 1.48C97.34 1.52 97.76 1.65 98.04 1.76C98.42 1.9 98.69 2.08 98.96 2.35C99.24 2.64 99.42 2.9 99.56 3.27C99.67 3.55 99.8 3.98 99.84 4.76C99.87 5.6 99.88 5.85 99.88 7.99C99.88 10.13 99.87 10.38 99.84 11.22C99.8 12 99.67 12.42 99.56 12.7C99.42 13.08 99.24 13.35 98.96 13.62C98.68 13.9 98.42 14.08 98.04 14.22C97.76 14.33 97.34 14.46 96.56 14.5C95.72 14.53 95.46 14.54 93.33 14.54C91.19 14.54 90.94 14.53 90.1 14.5C89.32 14.46 88.89 14.33 88.61 14.22C88.24 14.08 87.97 13.9 87.69 13.62C87.41 13.34 87.24 13.08 87.1 12.7C86.99 12.42 86.86 12 86.82 11.22C86.79 10.38 86.78 10.12 86.78 7.99C86.78 5.85 86.79 5.6 86.82 4.76C86.86 3.98 86.99 3.55 87.1 3.27C87.24 2.9 87.42 2.63 87.69 2.35C87.98 2.07 88.24 1.9 88.61 1.76C88.89 1.65 89.32 1.52 90.1 1.48C90.94 1.45 91.19 1.44 93.33 1.44ZM93.33 0C91.16 0 90.89 0 90.03 0.04C89.18 0.08 88.6 0.22 88.09 0.41C87.56 0.62 87.12 0.89 86.67 1.34C86.23 1.78 85.95 2.23 85.75 2.75C85.55 3.26 85.41 3.85 85.38 4.7C85.34 5.55 85.33 5.82 85.33 8C85.33 10.17 85.34 10.44 85.38 11.29C85.41 12.14 85.55 12.73 85.75 13.23C85.95 13.76 86.23 14.21 86.67 14.65C87.12 15.1 87.56 15.37 88.09 15.57C88.6 15.77 89.18 15.91 90.03 15.95C90.88 15.98 91.15 15.99 93.33 15.99C95.5 15.99 95.77 15.98 96.62 15.95C97.47 15.91 98.06 15.77 98.56 15.57C99.09 15.37 99.54 15.1 99.98 14.65C100.42 14.21 100.7 13.76 100.9 13.24C101.1 12.73 101.24 12.14 101.27 11.29C101.31 10.44 101.32 10.17 101.32 8C101.32 5.83 101.31 5.55 101.27 4.7C101.24 3.85 101.1 3.27 100.9 2.76C100.7 2.23 100.43 1.78 99.99 1.34C99.54 0.89 99.09 0.62 98.57 0.42C98.06 0.22 97.48 0.08 96.63 0.04C95.77 0 95.5 0 93.33 0Z" fill="#6D6E76" fill-opacity="1.000000" fill-rule="nonzero"/>
		<path id="Vector" d="M93.33 3.89C91.06 3.89 89.22 5.73 89.22 8C89.22 10.26 91.06 12.1 93.33 12.1C95.6 12.1 97.44 10.26 97.44 8C97.44 5.73 95.6 3.89 93.33 3.89ZM93.33 10.66C91.86 10.66 90.66 9.47 90.66 8C90.66 6.52 91.86 5.33 93.33 5.33C94.8 5.33 95.99 6.52 95.99 8C95.99 9.47 94.8 10.66 93.33 10.66Z" fill="#6D6E76" fill-opacity="1.000000" fill-rule="nonzero"/>
		<path id="Vector" d="M98.56 3.72C98.56 4.25 98.13 4.68 97.6 4.68C97.07 4.68 96.64 4.25 96.64 3.72C96.64 3.19 97.07 2.76 97.6 2.76C98.13 2.76 98.56 3.19 98.56 3.72Z" fill="#6D6E76" fill-opacity="1.000000" fill-rule="nonzero"/>
	</g>
	<rect id="LinkedIn / Negative" rx="0.000000" width="15.000000" height="15.000000" transform="translate(128.500000 0.500000)" fill="#FFFFFF" fill-opacity="0"/>
	<g clip-path="url(#clip2_158)">
		<path id="Vector" d="M142.81 0L129.18 0C128.52 0 128 0.51 128 1.15L128 14.84C128 15.48 128.52 16 129.18 16L142.81 16C143.46 16 144 15.48 144 14.84L144 1.15C144 0.51 143.46 0 142.81 0ZM132.74 13.63L130.37 13.63L130.37 5.99L132.74 5.99L132.74 13.63ZM131.56 4.95C130.79 4.95 130.18 4.34 130.18 3.58C130.18 2.82 130.79 2.2 131.56 2.2C132.31 2.2 132.93 2.82 132.93 3.58C132.93 4.33 132.31 4.95 131.56 4.95ZM141.63 13.63L139.26 13.63L139.26 9.92C139.26 9.03 139.24 7.89 138.02 7.89C136.79 7.89 136.6 8.86 136.6 9.85L136.6 13.63L134.23 13.63L134.23 5.99L136.51 5.99L136.51 7.04L136.54 7.04C136.85 6.44 137.63 5.8 138.78 5.8C141.19 5.8 141.63 7.38 141.63 9.44L141.63 13.63Z" fill="#6D6E76" fill-opacity="1.000000" fill-rule="nonzero"/>
	</g>
</svg>
